  0
SECTION
  2
HEADER
  9
$ACADVER
  1
AC1009
  9
$EXTMIN
 10
0.0
 20
0.0
 30
0.0
  9
$EXTMAX
 10
1000.0
 20
1000.0
 30
0.0
  9
$FILLMODE
 70
 0
  9
$SPLFRAME
 70
 1
  0
ENDSEC
  0
SECTION
  2
TABLES
  0
TABLE
  2
LAYER
 70
1
  0
LAYER
  2
0
 70
     0
 62
     7
  6
CONTINUOUS
  0
ENDTAB
  0
ENDSEC
  0
SECTION
  2
ENTITIES
  0
LINE
  8
0
 62
     0
 10
6.64057
 20
2.12088
 30
0.0
 11
6.60389
 21
2.1166
 31
0.0
  0
LINE
  8
0
 62
     0
 10
6.60389
 20
2.1166
 30
0.0
 11
6.56863
 21
2.12321
 31
0.0
  0
LINE
  8
0
 62
     0
 10
6.56863
 20
2.12321
 30
0.0
 11
6.53478
 21
2.13531
 31
0.0
  0
LINE
  8
0
 62
     0
 10
6.53478
 20
2.13531
 30
0.0
 11
6.50222
 21
2.14735
 31
0.0
  0
LINE
  8
0
 62
     0
 10
6.50222
 20
2.14735
 30
0.0
 11
5.01812
 21
2.61849
 31
0.0
  0
LINE
  8
0
 62
     0
 10
5.01812
 20
2.61849
 30
0.0
 11
4.88092
 21
2.66276
 31
0.0
  0
LINE
  8
0
 62
     0
 10
4.88092
 20
2.66276
 30
0.0
 11
4.76193
 21
2.71858
 31
0.0
  0
LINE
  8
0
 62
     0
 10
4.76193
 20
2.71858
 30
0.0
 11
4.66314
 21
2.79719
 31
0.0
  0
LINE
  8
0
 62
     0
 10
4.66314
 20
2.79719
 30
0.0
 11
4.57937
 21
2.89236
 31
0.0
  0
LINE
  8
0
 62
     0
 10
4.57937
 20
2.89236
 30
0.0
 11
4.51693
 21
3.00364
 31
0.0
  0
LINE
  8
0
 62
     0
 10
4.51693
 20
3.00364
 30
0.0
 11
4.4675
 21
3.13379
 31
0.0
  0
LINE
  8
0
 62
     0
 10
4.4675
 20
3.13379
 30
0.0
 11
4.16331
 21
3.98497
 31
0.0
  0
LINE
  8
0
 62
     0
 10
4.16331
 20
3.98497
 30
0.0
 11
3.85503
 21
4.83578
 31
0.0
  0
LINE
  8
0
 62
     0
 10
3.85503
 20
4.83578
 30
0.0
 11
3.84347
 21
4.8705
 31
0.0
  0
LINE
  8
0
 62
     0
 10
3.84347
 20
4.8705
 30
0.0
 11
3.83176
 21
4.90668
 31
0.0
  0
LINE
  8
0
 62
     0
 10
3.83176
 20
4.90668
 30
0.0
 11
3.81912
 21
4.93989
 31
0.0
  0
LINE
  8
0
 62
     0
 10
3.81912
 20
4.93989
 30
0.0
 11
3.80496
 21
4.96533
 31
0.0
  0
LINE
  8
0
 62
     0
 10
3.80496
 20
4.96533
 30
0.0
 11
3.78
 21
4.98676
 31
0.0
  0
LINE
  8
0
 62
     0
 10
3.78
 20
4.98676
 30
0.0
 11
3.74849
 21
4.99604
 31
0.0
  0
LINE
  8
0
 62
     0
 10
3.74849
 20
4.99604
 30
0.0
 11
3.7091
 21
4.9981
 31
0.0
  0
LINE
  8
0
 62
     0
 10
3.7091
 20
4.9981
 30
0.0
 11
3.66064
 21
4.99772
 31
0.0
  0
LINE
  8
0
 62
     0
 10
3.66064
 20
4.99772
 30
0.0
 11
3.55171
 21
4.99772
 31
0.0
  0
LINE
  8
0
 62
     0
 10
3.55171
 20
4.99772
 30
0.0
 11
3.49283
 21
4.99892
 31
0.0
  0
LINE
  8
0
 62
     0
 10
3.49283
 20
4.99892
 30
0.0
 11
3.43614
 21
5.0006
 31
0.0
  0
LINE
  8
0
 62
     0
 10
3.43614
 20
5.0006
 30
0.0
 11
3.3834
 21
5.00011
 31
0.0
  0
LINE
  8
0
 62
     0
 10
3.3834
 20
5.00011
 30
0.0
 11
3.33675
 21
4.99479
 31
0.0
  0
LINE
  8
0
 62
     0
 10
3.33675
 20
4.99479
 30
0.0
 11
3.30854
 21
4.98068
 31
0.0
  0
LINE
  8
0
 62
     0
 10
3.30854
 20
4.98068
 30
0.0
 11
3.28965
 21
4.95649
 31
0.0
  0
LINE
  8
0
 62
     0
 10
3.28965
 20
4.95649
 30
0.0
 11
3.26292
 21
4.898
 31
0.0
  0
LINE
  8
0
 62
     0
 10
3.26292
 20
4.898
 30
0.0
 11
3.23958
 21
4.82992
 31
0.0
  0
LINE
  8
0
 62
     0
 10
3.23958
 20
4.82992
 30
0.0
 11
2.93565
 21
3.98063
 31
0.0
  0
LINE
  8
0
 62
     0
 10
2.93565
 20
3.98063
 30
0.0
 11
2.63004
 21
3.13379
 31
0.0
  0
LINE
  8
0
 62
     0
 10
2.63004
 20
3.13379
 30
0.0
 11
2.58068
 21
3.00364
 31
0.0
  0
LINE
  8
0
 62
     0
 10
2.58068
 20
3.00364
 30
0.0
 11
2.51818
 21
2.88943
 31
0.0
  0
LINE
  8
0
 62
     0
 10
2.51818
 20
2.88943
 30
0.0
 11
2.43397
 21
2.79574
 31
0.0
  0
LINE
  8
0
 62
     0
 10
2.43397
 20
2.79574
 30
0.0
 11
2.33561
 21
2.71864
 31
0.0
  0
LINE
  8
0
 62
     0
 10
2.33561
 20
2.71864
 30
0.0
 11
2.21631
 21
2.66319
 31
0.0
  0
LINE
  8
0
 62
     0
 10
2.21631
 20
2.66319
 30
0.0
 11
2.07943
 21
2.61849
 31
0.0
  0
LINE
  8
0
 62
     0
 10
2.07943
 20
2.61849
 30
0.0
 11
1.81401
 21
2.53353
 31
0.0
  0
LINE
  8
0
 62
     0
 10
1.81401
 20
2.53353
 30
0.0
 11
1.54053
 21
2.44769
 31
0.0
  0
LINE
  8
0
 62
     0
 10
1.54053
 20
2.44769
 30
0.0
 11
0.601238
 21
2.14442
 31
0.0
  0
LINE
  8
0
 62
     0
 10
0.601238
 20
2.14442
 30
0.0
 11
0.571669
 21
2.1351
 31
0.0
  0
LINE
  8
0
 62
     0
 10
0.571669
 20
2.1351
 30
0.0
 11
0.533475
 21
2.12381
 31
0.0
  0
LINE
  8
0
 62
     0
 10
0.533475
 20
2.12381
 30
0.0
 11
0.521918
 21
2.11892
 31
0.0
  0
LINE
  8
0
 62
     0
 10
0.521918
 20
2.11892
 30
0.0
 11
0.498156
 21
2.11496
 31
0.0
  0
LINE
  8
0
 62
     0
 10
0.498156
 20
2.11496
 30
0.0
 11
0.475911
 21
2.11963
 31
0.0
  0
LINE
  8
0
 62
     0
 10
0.475911
 20
2.11963
 30
0.0
 11
0.465169
 21
2.13086
 31
0.0
  0
LINE
  8
0
 62
     0
 10
0.465169
 20
2.13086
 30
0.0
 11
0.46365
 21
2.14708
 31
0.0
  0
LINE
  8
0
 62
     0
 10
0.46365
 20
2.14708
 30
0.0
 11
0.469129
 21
2.16672
 31
0.0
  0
LINE
  8
0
 62
     0
 10
0.469129
 20
2.16672
 30
0.0
 11
0.479329
 21
2.18815
 31
0.0
  0
LINE
  8
0
 62
     0
 10
0.479329
 20
2.18815
 30
0.0
 11
0.492025
 21
2.20985
 31
0.0
  0
LINE
  8
0
 62
     0
 10
0.492025
 20
2.20985
 30
0.0
 11
0.504937
 21
2.23019
 31
0.0
  0
LINE
  8
0
 62
     0
 10
0.504937
 20
2.23019
 30
0.0
 11
0.515842
 21
2.2475
 31
0.0
  0
LINE
  8
0
 62
     0
 10
0.515842
 20
2.2475
 30
0.0
 11
0.549804
 21
2.30485
 31
0.0
  0
LINE
  8
0
 62
     0
 10
0.549804
 20
2.30485
 30
0.0
 11
0.580621
 21
2.35644
 31
0.0
  0
LINE
  8
0
 62
     0
 10
0.580621
 20
2.35644
 30
0.0
 11
2.02642
 21
4.76221
 31
0.0
  0
LINE
  8
0
 62
     0
 10
2.02642
 20
4.76221
 30
0.0
 11
2.25592
 21
5.14312
 31
0.0
  0
LINE
  8
0
 62
     0
 10
2.25592
 20
5.14312
 30
0.0
 11
2.48579
 21
5.52778
 31
0.0
  0
LINE
  8
0
 62
     0
 10
2.48579
 20
5.52778
 30
0.0
 11
2.5101
 21
5.57081
 31
0.0
  0
LINE
  8
0
 62
     0
 10
2.5101
 20
5.57081
 30
0.0
 11
2.53581
 21
5.61203
 31
0.0
  0
LINE
  8
0
 62
     0
 10
2.53581
 20
5.61203
 30
0.0
 11
2.56739
 21
5.64643
 31
0.0
  0
LINE
  8
0
 62
     0
 10
2.56739
 20
5.64643
 30
0.0
 11
2.60943
 21
5.66911
 31
0.0
  0
LINE
  8
0
 62
     0
 10
2.60943
 20
5.66911
 30
0.0
 11
4.4969
 21
5.66911
 31
0.0
  0
LINE
  8
0
 62
     0
 10
4.4969
 20
5.66911
 30
0.0
 11
4.52968
 21
5.65587
 31
0.0
  0
LINE
  8
0
 62
     0
 10
4.52968
 20
5.65587
 30
0.0
 11
4.55294
 21
5.63667
 31
0.0
  0
LINE
  8
0
 62
     0
 10
4.55294
 20
5.63667
 30
0.0
 11
4.57101
 21
5.61236
 31
0.0
  0
LINE
  8
0
 62
     0
 10
4.57101
 20
5.61236
 30
0.0
 11
4.58822
 21
5.58371
 31
0.0
  0
LINE
  8
0
 62
     0
 10
4.58822
 20
5.58371
 30
0.0
 11
4.62061
 21
5.52778
 31
0.0
  0
LINE
  8
0
 62
     0
 10
4.62061
 20
5.52778
 30
0.0
 11
5.61008
 21
3.88206
 31
0.0
  0
LINE
  8
0
 62
     0
 10
5.61008
 20
3.88206
 30
0.0
 11
6.5964
 21
2.2416
 31
0.0
  0
LINE
  8
0
 62
     0
 10
6.5964
 20
2.2416
 30
0.0
 11
6.61442
 21
2.21451
 31
0.0
  0
LINE
  8
0
 62
     0
 10
6.61442
 20
2.21451
 30
0.0
 11
6.63222
 21
2.18554
 31
0.0
  0
LINE
  8
0
 62
     0
 10
6.63222
 20
2.18554
 30
0.0
 11
6.64312
 21
2.1544
 31
0.0
  0
LINE
  8
0
 62
     0
 10
6.64312
 20
2.1544
 30
0.0
 11
6.64057
 21
2.12088
 31
0.0
  0
LINE
  8
0
 62
     0
 10
6.55524
 20
1.6939
 30
0.0
 11
6.27403
 21
1.25255
 31
0.0
  0
LINE
  8
0
 62
     0
 10
6.27403
 20
1.25255
 30
0.0
 11
5.98986
 21
0.807563
 31
0.0
  0
LINE
  8
0
 62
     0
 10
5.98986
 20
0.807563
 30
0.0
 11
5.97
 21
0.772678
 31
0.0
  0
LINE
  8
0
 62
     0
 10
5.97
 20
0.772678
 30
0.0
 11
5.94743
 21
0.733344
 31
0.0
  0
LINE
  8
0
 62
     0
 10
5.94743
 20
0.733344
 30
0.0
 11
5.92171
 21
0.700196
 31
0.0
  0
LINE
  8
0
 62
     0
 10
5.92171
 20
0.700196
 30
0.0
 11
5.89268
 21
0.683919
 31
0.0
  0
LINE
  8
0
 62
     0
 10
5.89268
 20
0.683919
 30
0.0
 11
5.84472
 21
0.69835
 31
0.0
  0
LINE
  8
0
 62
     0
 10
5.84472
 20
0.69835
 30
0.0
 11
5.79844
 21
0.733942
 31
0.0
  0
LINE
  8
0
 62
     0
 10
5.79844
 20
0.733942
 30
0.0
 11
4.74724
 21
1.5555
 31
0.0
  0
LINE
  8
0
 62
     0
 10
4.74724
 20
1.5555
 30
0.0
 11
4.66699
 21
1.61763
 31
0.0
  0
LINE
  8
0
 62
     0
 10
4.66699
 20
1.61763
 30
0.0
 11
4.58822
 21
1.68212
 31
0.0
  0
LINE
  8
0
 62
     0
 10
4.58822
 20
1.68212
 30
0.0
 11
4.45285
 21
1.83014
 31
0.0
  0
LINE
  8
0
 62
     0
 10
4.45285
 20
1.83014
 30
0.0
 11
4.33496
 21
2.00603
 31
0.0
  0
LINE
  8
0
 62
     0
 10
4.33496
 20
2.00603
 30
0.0
 11
4.23568
 21
2.20019
 31
0.0
  0
LINE
  8
0
 62
     0
 10
4.23568
 20
2.20019
 30
0.0
 11
4.17008
 21
2.41531
 31
0.0
  0
LINE
  8
0
 62
     0
 10
4.17008
 20
2.41531
 30
0.0
 11
4.13178
 21
2.66564
 31
0.0
  0
LINE
  8
0
 62
     0
 10
4.13178
 20
2.66564
 30
0.0
 11
4.05821
 21
3.16917
 31
0.0
  0
LINE
  8
0
 62
     0
 10
4.05821
 20
3.16917
 30
0.0
 11
4.01992
 21
3.41943
 31
0.0
  0
LINE
  8
0
 62
     0
 10
4.01992
 20
3.41943
 30
0.0
 11
4.02875
 21
3.42828
 31
0.0
  0
LINE
  8
0
 62
     0
 10
4.02875
 20
3.42828
 30
0.0
 11
4.04167
 21
3.41644
 31
0.0
  0
LINE
  8
0
 62
     0
 10
4.04167
 20
3.41644
 30
0.0
 11
4.0536
 21
3.39214
 31
0.0
  0
LINE
  8
0
 62
     0
 10
4.0536
 20
3.39214
 30
0.0
 11
4.06413
 21
3.36313
 31
0.0
  0
LINE
  8
0
 62
     0
 10
4.06413
 20
3.36313
 30
0.0
 11
4.07292
 21
3.33697
 31
0.0
  0
LINE
  8
0
 62
     0
 10
4.07292
 20
3.33697
 30
0.0
 11
4.176
 21
3.04546
 31
0.0
  0
LINE
  8
0
 62
     0
 10
4.176
 20
3.04546
 30
0.0
 11
4.20882
 21
2.94846
 31
0.0
  0
LINE
  8
0
 62
     0
 10
4.20882
 20
2.94846
 30
0.0
 11
4.24669
 21
2.85113
 31
0.0
  0
LINE
  8
0
 62
     0
 10
4.24669
 20
2.85113
 30
0.0
 11
4.29476
 21
2.76682
 31
0.0
  0
LINE
  8
0
 62
     0
 10
4.29476
 20
2.76682
 30
0.0
 11
4.34972
 21
2.69211
 31
0.0
  0
LINE
  8
0
 62
     0
 10
4.34972
 20
2.69211
 30
0.0
 11
4.47831
 21
2.55512
 31
0.0
  0
LINE
  8
0
 62
     0
 10
4.47831
 20
2.55512
 30
0.0
 11
4.62944
 21
2.44476
 31
0.0
  0
LINE
  8
0
 62
     0
 10
4.62944
 20
2.44476
 30
0.0
 11
4.80783
 21
2.36578
 31
0.0
  0
LINE
  8
0
 62
     0
 10
4.80783
 20
2.36578
 30
0.0
 11
5.00933
 21
2.30046
 31
0.0
  0
LINE
  8
0
 62
     0
 10
5.00933
 20
2.30046
 30
0.0
 11
5.40978
 21
2.17389
 31
0.0
  0
LINE
  8
0
 62
     0
 10
5.40978
 20
2.17389
 30
0.0
 11
6.40506
 21
1.85292
 31
0.0
  0
LINE
  8
0
 62
     0
 10
6.40506
 20
1.85292
 30
0.0
 11
6.45307
 21
1.83724
 31
0.0
  0
LINE
  8
0
 62
     0
 10
6.45307
 20
1.83724
 30
0.0
 11
6.50515
 21
1.82053
 31
0.0
  0
LINE
  8
0
 62
     0
 10
6.50515
 20
1.82053
 30
0.0
 11
6.53456
 21
1.81185
 31
0.0
  0
LINE
  8
0
 62
     0
 10
6.53456
 20
1.81185
 30
0.0
 11
6.55974
 21
1.803
 31
0.0
  0
LINE
  8
0
 62
     0
 10
6.55974
 20
1.803
 30
0.0
 11
6.57818
 21
1.79118
 31
0.0
  0
LINE
  8
0
 62
     0
 10
6.57818
 20
1.79118
 30
0.0
 11
6.58762
 21
1.77339
 31
0.0
  0
LINE
  8
0
 62
     0
 10
6.58762
 20
1.77339
 30
0.0
 11
6.5785
 21
1.73275
 31
0.0
  0
LINE
  8
0
 62
     0
 10
6.5785
 20
1.73275
 30
0.0
 11
6.55524
 21
1.6939
 31
0.0
  0
LINE
  8
0
 62
     0
 10
5.56581
 20
0.398275
 30
0.0
 11
3.94629
 21
0.398275
 31
0.0
  0
LINE
  8
0
 62
     0
 10
3.94629
 20
0.398275
 30
0.0
 11
3.88243
 21
0.396972
 31
0.0
  0
LINE
  8
0
 62
     0
 10
3.88243
 20
0.396972
 30
0.0
 11
3.81396
 21
0.396267
 31
0.0
  0
LINE
  8
0
 62
     0
 10
3.81396
 20
0.396267
 30
0.0
 11
3.75424
 21
0.400987
 31
0.0
  0
LINE
  8
0
 62
     0
 10
3.75424
 20
0.400987
 30
0.0
 11
3.71664
 21
0.415907
 31
0.0
  0
LINE
  8
0
 62
     0
 10
3.71664
 20
0.415907
 30
0.0
 11
3.70247
 21
0.445583
 31
0.0
  0
LINE
  8
0
 62
     0
 10
3.70247
 20
0.445583
 30
0.0
 11
3.69769
 21
0.489475
 31
0.0
  0
LINE
  8
0
 62
     0
 10
3.69769
 20
0.489475
 30
0.0
 11
3.69792
 21
0.539279
 31
0.0
  0
LINE
  8
0
 62
     0
 10
3.69792
 20
0.539279
 30
0.0
 11
3.69894
 21
0.586697
 31
0.0
  0
LINE
  8
0
 62
     0
 10
3.69894
 20
0.586697
 30
0.0
 11
3.69894
 21
1.98822
 31
0.0
  0
LINE
  8
0
 62
     0
 10
3.69894
 20
1.98822
 30
0.0
 11
3.69894
 21
3.38406
 31
0.0
  0
LINE
  8
0
 62
     0
 10
3.69894
 20
3.38406
 30
0.0
 11
3.70481
 21
3.3929
 31
0.0
  0
LINE
  8
0
 62
     0
 10
3.70481
 20
3.3929
 30
0.0
 11
3.71371
 21
3.3929
 31
0.0
  0
LINE
  8
0
 62
     0
 10
3.71371
 20
3.3929
 30
0.0
 11
3.83735
 21
2.58903
 31
0.0
  0
LINE
  8
0
 62
     0
 10
3.83735
 20
2.58903
 30
0.0
 11
3.87858
 21
2.324
 31
0.0
  0
LINE
  8
0
 62
     0
 10
3.87858
 20
2.324
 30
0.0
 11
3.95128
 21
2.09478
 31
0.0
  0
LINE
  8
0
 62
     0
 10
3.95128
 20
2.09478
 30
0.0
 11
4.05524
 21
1.88232
 31
0.0
  0
LINE
  8
0
 62
     0
 10
4.05524
 20
1.88232
 30
0.0
 11
4.176
 21
1.69183
 31
0.0
  0
LINE
  8
0
 62
     0
 10
4.176
 20
1.69183
 30
0.0
 11
4.31435
 21
1.52604
 31
0.0
  0
LINE
  8
0
 62
     0
 10
4.31435
 20
1.52604
 30
0.0
 11
4.47874
 21
1.38102
 31
0.0
  0
LINE
  8
0
 62
     0
 10
4.47874
 20
1.38102
 30
0.0
 11
4.653
 21
1.24631
 31
0.0
  0
LINE
  8
0
 62
     0
 10
4.653
 20
1.24631
 30
0.0
 11
5.60113
 21
0.501303
 31
0.0
  0
LINE
  8
0
 62
     0
 10
5.60113
 20
0.501303
 30
0.0
 11
5.62349
 21
0.485678
 31
0.0
  0
LINE
  8
0
 62
     0
 10
5.62349
 20
0.485678
 30
0.0
 11
5.64654
 21
0.468533
 31
0.0
  0
LINE
  8
0
 62
     0
 10
5.64654
 20
0.468533
 30
0.0
 11
5.66456
 21
0.447211
 31
0.0
  0
LINE
  8
0
 62
     0
 10
5.66456
 20
0.447211
 30
0.0
 11
5.67182
 21
0.418892
 31
0.0
  0
LINE
  8
0
 62
     0
 10
5.67182
 20
0.418892
 30
0.0
 11
5.64893
 21
0.404514
 31
0.0
  0
LINE
  8
0
 62
     0
 10
5.64893
 20
0.404514
 30
0.0
 11
5.62229
 21
0.398654
 31
0.0
  0
LINE
  8
0
 62
     0
 10
5.62229
 20
0.398654
 30
0.0
 11
5.59392
 21
0.397786
 31
0.0
  0
LINE
  8
0
 62
     0
 10
5.59392
 20
0.397786
 30
0.0
 11
5.56581
 21
0.398275
 31
0.0
  0
LINE
  8
0
 62
     0
 10
3.37506
 20
0.412978
 30
0.0
 11
3.33507
 21
0.399306
 31
0.0
  0
LINE
  8
0
 62
     0
 10
3.33507
 20
0.399306
 30
0.0
 11
3.273
 21
0.395562
 31
0.0
  0
LINE
  8
0
 62
     0
 10
3.273
 20
0.395562
 30
0.0
 11
3.20307
 21
0.39681
 31
0.0
  0
LINE
  8
0
 62
     0
 10
3.20307
 20
0.39681
 30
0.0
 11
3.13949
 21
0.398275
 31
0.0
  0
LINE
  8
0
 62
     0
 10
3.13949
 20
0.398275
 30
0.0
 11
1.52582
 21
0.398275
 31
0.0
  0
LINE
  8
0
 62
     0
 10
1.52582
 20
0.398275
 30
0.0
 11
1.49869
 21
0.39784
 31
0.0
  0
LINE
  8
0
 62
     0
 10
1.49869
 20
0.39784
 30
0.0
 11
1.47108
 21
0.398817
 31
0.0
  0
LINE
  8
0
 62
     0
 10
1.47108
 20
0.398817
 30
0.0
 11
1.4451
 21
0.404676
 31
0.0
  0
LINE
  8
0
 62
     0
 10
1.4451
 20
0.404676
 30
0.0
 11
1.42279
 21
0.418892
 31
0.0
  0
LINE
  8
0
 62
     0
 10
1.42279
 20
0.418892
 30
0.0
 11
1.43061
 21
0.446724
 31
0.0
  0
LINE
  8
0
 62
     0
 10
1.43061
 20
0.446724
 30
0.0
 11
1.44829
 21
0.469129
 31
0.0
  0
LINE
  8
0
 62
     0
 10
1.44829
 20
0.469129
 30
0.0
 11
1.47092
 21
0.487793
 31
0.0
  0
LINE
  8
0
 62
     0
 10
1.47092
 20
0.487793
 30
0.0
 11
1.49343
 21
0.504286
 31
0.0
  0
LINE
  8
0
 62
     0
 10
1.49343
 20
0.504286
 30
0.0
 11
2.61535
 21
1.38178
 31
0.0
  0
LINE
  8
0
 62
     0
 10
2.61535
 20
1.38178
 30
0.0
 11
2.70074
 21
1.44949
 31
0.0
  0
LINE
  8
0
 62
     0
 10
2.70074
 20
1.44949
 30
0.0
 11
2.88476
 21
1.64551
 31
0.0
  0
LINE
  8
0
 62
     0
 10
2.88476
 20
1.64551
 30
0.0
 11
3.03939
 21
1.87939
 31
0.0
  0
LINE
  8
0
 62
     0
 10
3.03939
 20
1.87939
 30
0.0
 11
3.14063
 21
2.09169
 31
0.0
  0
LINE
  8
0
 62
     0
 10
3.14063
 20
2.09169
 30
0.0
 11
3.21311
 21
2.32107
 31
0.0
  0
LINE
  8
0
 62
     0
 10
3.21311
 20
2.32107
 30
0.0
 11
3.25726
 21
2.5861
 31
0.0
  0
LINE
  8
0
 62
     0
 10
3.25726
 20
2.5861
 30
0.0
 11
3.37799
 21
3.38406
 31
0.0
  0
LINE
  8
0
 62
     0
 10
3.37799
 20
3.38406
 30
0.0
 11
3.3839
 21
3.3929
 31
0.0
  0
LINE
  8
0
 62
     0
 10
3.3839
 20
3.3929
 30
0.0
 11
3.38975
 21
3.3929
 31
0.0
  0
LINE
  8
0
 62
     0
 10
3.38975
 20
3.3929
 30
0.0
 11
3.39669
 21
3.34924
 31
0.0
  0
LINE
  8
0
 62
     0
 10
3.39669
 20
3.34924
 30
0.0
 11
3.39567
 21
3.30458
 31
0.0
  0
LINE
  8
0
 62
     0
 10
3.39567
 20
3.30458
 30
0.0
 11
3.39567
 21
0.595594
 31
0.0
  0
LINE
  8
0
 62
     0
 10
3.39567
 20
0.595594
 30
0.0
 11
3.3966
 21
0.540744
 31
0.0
  0
LINE
  8
0
 62
     0
 10
3.3966
 20
0.540744
 30
0.0
 11
3.39649
 21
0.487088
 31
0.0
  0
LINE
  8
0
 62
     0
 10
3.39649
 20
0.487088
 30
0.0
 11
3.39079
 21
0.442111
 31
0.0
  0
LINE
  8
0
 62
     0
 10
3.39079
 20
0.442111
 30
0.0
 11
3.37506
 21
0.412978
 31
0.0
  0
LINE
  8
0
 62
     0
 10
1.20784
 20
0.683865
 30
0.0
 11
1.17535
 21
0.698676
 31
0.0
  0
LINE
  8
0
 62
     0
 10
1.17535
 20
0.698676
 30
0.0
 11
1.14833
 21
0.731392
 31
0.0
  0
LINE
  8
0
 62
     0
 10
1.14833
 20
0.731392
 30
0.0
 11
1.12527
 21
0.771213
 31
0.0
  0
LINE
  8
0
 62
     0
 10
1.12527
 20
0.771213
 30
0.0
 11
1.10476
 21
0.807563
 31
0.0
  0
LINE
  8
0
 62
     0
 10
1.10476
 20
0.807563
 30
0.0
 11
0.822374
 21
1.25206
 31
0.0
  0
LINE
  8
0
 62
     0
 10
0.822374
 20
1.25206
 30
0.0
 11
0.539387
 21
1.69683
 31
0.0
  0
LINE
  8
0
 62
     0
 10
0.539387
 20
1.69683
 30
0.0
 11
0.515842
 21
1.73432
 31
0.0
  0
LINE
  8
0
 62
     0
 10
0.515842
 20
1.73432
 30
0.0
 11
0.509983
 21
1.77339
 31
0.0
  0
LINE
  8
0
 62
     0
 10
0.509983
 20
1.77339
 30
0.0
 11
0.519803
 21
1.79124
 31
0.0
  0
LINE
  8
0
 62
     0
 10
0.519803
 20
1.79124
 30
0.0
 11
0.537978
 21
1.80399
 31
0.0
  0
LINE
  8
0
 62
     0
 10
0.537978
 20
1.80399
 30
0.0
 11
0.562717
 21
1.81392
 31
0.0
  0
LINE
  8
0
 62
     0
 10
0.562717
 20
1.81392
 30
0.0
 11
0.592447
 21
1.82346
 31
0.0
  0
LINE
  8
0
 62
     0
 10
0.592447
 20
1.82346
 30
0.0
 11
1.68192
 21
2.17383
 31
0.0
  0
LINE
  8
0
 62
     0
 10
1.68192
 20
2.17383
 30
0.0
 11
2.07943
 21
2.30046
 31
0.0
  0
LINE
  8
0
 62
     0
 10
2.07943
 20
2.30046
 30
0.0
 11
2.28179
 21
2.36442
 31
0.0
  0
LINE
  8
0
 62
     0
 10
2.28179
 20
2.36442
 30
0.0
 11
2.46224
 21
2.44179
 31
0.0
  0
LINE
  8
0
 62
     0
 10
2.46224
 20
2.44179
 30
0.0
 11
2.61301
 21
2.5504
 31
0.0
  0
LINE
  8
0
 62
     0
 10
2.61301
 20
2.5504
 30
0.0
 11
2.74197
 21
2.68619
 31
0.0
  0
LINE
  8
0
 62
     0
 10
2.74197
 20
2.68619
 30
0.0
 11
2.79785
 21
2.76286
 31
0.0
  0
LINE
  8
0
 62
     0
 10
2.79785
 20
2.76286
 30
0.0
 11
2.84506
 21
2.84521
 31
0.0
  0
LINE
  8
0
 62
     0
 10
2.84506
 20
2.84521
 30
0.0
 11
2.88194
 21
2.93804
 31
0.0
  0
LINE
  8
0
 62
     0
 10
2.88194
 20
2.93804
 30
0.0
 11
2.91569
 21
3.03662
 31
0.0
  0
LINE
  8
0
 62
     0
 10
2.91569
 20
3.03662
 30
0.0
 11
3.0541
 21
3.41943
 31
0.0
  0
LINE
  8
0
 62
     0
 10
3.0541
 20
3.41943
 30
0.0
 11
3.05994
 21
3.42822
 31
0.0
  0
LINE
  8
0
 62
     0
 10
3.05994
 20
3.42822
 30
0.0
 11
3.07183
 21
3.42389
 31
0.0
  0
LINE
  8
0
 62
     0
 10
3.07183
 20
3.42389
 30
0.0
 11
3.07465
 21
3.41049
 31
0.0
  0
LINE
  8
0
 62
     0
 10
3.07465
 20
3.41049
 30
0.0
 11
3.07238
 21
3.39204
 31
0.0
  0
LINE
  8
0
 62
     0
 10
3.07238
 20
3.39204
 30
0.0
 11
3.06879
 21
3.37229
 31
0.0
  0
LINE
  8
0
 62
     0
 10
3.06879
 20
3.37229
 30
0.0
 11
3.03558
 21
3.14806
 31
0.0
  0
LINE
  8
0
 62
     0
 10
3.03558
 20
3.14806
 30
0.0
 11
3.00401
 21
2.93061
 31
0.0
  0
LINE
  8
0
 62
     0
 10
3.00401
 20
2.93061
 30
0.0
 11
2.96739
 21
2.68267
 31
0.0
  0
LINE
  8
0
 62
     0
 10
2.96739
 20
2.68267
 30
0.0
 11
2.92746
 21
2.43001
 31
0.0
  0
LINE
  8
0
 62
     0
 10
2.92746
 20
2.43001
 30
0.0
 11
2.86307
 21
2.20953
 31
0.0
  0
LINE
  8
0
 62
     0
 10
2.86307
 20
2.20953
 30
0.0
 11
2.76551
 21
2.01486
 31
0.0
  0
LINE
  8
0
 62
     0
 10
2.76551
 20
2.01486
 30
0.0
 11
2.64942
 21
1.83854
 31
0.0
  0
LINE
  8
0
 62
     0
 10
2.64942
 20
1.83854
 30
0.0
 11
2.51525
 21
1.68799
 31
0.0
  0
LINE
  8
0
 62
     0
 10
2.51525
 20
1.68799
 30
0.0
 11
2.43587
 21
1.62201
 31
0.0
  0
LINE
  8
0
 62
     0
 10
2.43587
 20
1.62201
 30
0.0
 11
2.35331
 21
1.55843
 31
0.0
  0
LINE
  8
0
 62
     0
 10
2.35331
 20
1.55843
 30
0.0
 11
1.95019
 21
1.24322
 31
0.0
  0
LINE
  8
0
 62
     0
 10
1.95019
 20
1.24322
 30
0.0
 11
1.54351
 21
0.925347
 31
0.0
  0
LINE
  8
0
 62
     0
 10
1.54351
 20
0.925347
 30
0.0
 11
1.2991
 21
0.736871
 31
0.0
  0
LINE
  8
0
 62
     0
 10
1.2991
 20
0.736871
 30
0.0
 11
1.25331
 21
0.700629
 31
0.0
  0
LINE
  8
0
 62
     0
 10
1.25331
 20
0.700629
 30
0.0
 11
1.20784
 21
0.683865
 31
0.0
  0
LINE
  8
0
 62
     0
 10
4.72254
 20
6.06461
 30
0.0
 11
2.39822
 21
6.06461
 31
0.0
  0
LINE
  8
0
 62
     0
 10
2.39822
 20
6.06461
 30
0.0
 11
0
 21
2.04204
 31
0.0
  0
LINE
  8
0
 62
     0
 10
0
 20
2.04204
 30
0.0
 11
0.052029
 21
1.54443
 31
0.0
  0
LINE
  8
0
 62
     0
 10
0.052029
 20
1.54443
 30
0.0
 11
0.801053
 21
0.367676
 31
0.0
  0
LINE
  8
0
 62
     0
 10
0.801053
 20
0.367676
 30
0.0
 11
1.10341
 21
-0
 31
0.0
  0
LINE
  8
0
 62
     0
 10
1.10341
 20
-0
 30
0.0
 11
5.98986
 21
0.0268554
 31
0.0
  0
LINE
  8
0
 62
     0
 10
5.98986
 20
0.0268554
 30
0.0
 11
6.24382
 21
0.331651
 31
0.0
  0
LINE
  8
0
 62
     0
 10
6.24382
 20
0.331651
 30
0.0
 11
7.04297
 21
1.58458
 31
0.0
  0
LINE
  8
0
 62
     0
 10
7.04297
 20
1.58458
 30
0.0
 11
7.10389
 21
1.98415
 31
0.0
  0
LINE
  8
0
 62
     0
 10
7.10389
 20
1.98415
 30
0.0
 11
4.72254
 21
6.06461
 31
0.0
  0
ENDSEC
  0
EOF
